<svg id="Layer_1" data-name="Layer 1" xmlns="http://www.w3.org/2000/svg" xmlns:xlink="http://www.w3.org/1999/xlink" viewBox="0 0 243.45 258.99"><defs><style>.cls-1,.cls-3,.cls-5{fill:none;}.cls-2{clip-path:url(#clip-path);}.cls-3,.cls-5{stroke:#fff;}.cls-3{stroke-linecap:round;stroke-linejoin:round;stroke-width:9.06px;}.cls-4{fill:#fff;}.cls-5{stroke-miterlimit:10;stroke-width:4.53px;}</style><clipPath id="clip-path" transform="translate(-89.48 -66.25)"><rect class="cls-1" x="59.48" y="45.24" width="298.35" height="313.14"/></clipPath></defs><g class="cls-2"><path class="cls-3" d="M271.5,206.64h24m-12-12v24m-55.61,15h33.37m-43.64,24,27-63,26.95,63m56.9,24H289.47a3,3,0,0,0-3,3l-.31,33.53M230.43,134.6l.07.07" transform="translate(-89.48 -66.25)"/><path class="cls-4" d="M183.32,74.73l-81.18,35.45,17.1,7.47,62.44-10.59a3,3,0,0,1,1,5.86L129.17,122l9.8,4.28h0l44.35,19.36,44.34-19.36h0l36.83-16.09Zm-42.57,58.8v37.63h85.13V133.53L184.5,151.6a3,3,0,0,1-2.37,0ZM107.86,160a7.17,7.17,0,0,0,3.85,6.35,5.89,5.89,0,0,0,.63.29l.25.09q.28.1.57.18l.21.06c.23.05.47.1.71.13h.1a7.07,7.07,0,0,0,1.72,0h.1c.23,0,.47-.08.7-.13l.21-.06a5.58,5.58,0,0,0,.58-.18l.24-.09a4.51,4.51,0,0,0,.63-.29,7.17,7.17,0,0,0-.35-12.88v2.81a3,3,0,1,1-5.94,0v-2.81a7.18,7.18,0,0,0-4.21,6.53m3.86,12.68a59.29,59.29,0,0,0-3.86,16.27c.65.56,3.21,1.49,7.18,1.49s6.52-.93,7.17-1.49a58.92,58.92,0,0,0-3.86-16.27,4.15,4.15,0,0,1-.48.11l-.28.07c-.34.06-.69.12-1,.16l-.4,0c-.3,0-.61.05-.91.05h-.4c-.31,0-.61,0-.92-.05l-.39,0c-.35,0-.7-.1-1-.16l-.28-.07a4.15,4.15,0,0,1-.48-.11m120.1,1.47a3,3,0,0,1-3,3H137.78a3,3,0,0,1-3-3v-43.2l-16.32-7.13-.48.08v23.33a13.09,13.09,0,0,1,5.61,22.66c2.76,6.55,4.53,15.51,4.53,19.31,0,4.43-5,7.18-13.11,7.18s-13.12-2.75-13.12-7.18c0-3.8,1.77-12.76,4.54-19.31a13.08,13.08,0,0,1,5.61-22.66V121.37c0-.12,0-.24,0-.36L93.53,112.9a3,3,0,0,1,0-5.44l88.6-38.69a3,3,0,0,1,2.37,0l88.6,38.69a3,3,0,0,1,0,5.44l-41.28,18Z" transform="translate(-89.48 -66.25)"/><path class="cls-5" d="M183.32,74.73l-81.18,35.45,17.1,7.47,62.44-10.59a3,3,0,0,1,1,5.86L129.17,122l9.8,4.28h0l44.35,19.36,44.34-19.36h0l36.83-16.09Zm-42.57,58.8v37.63h85.13V133.53L184.5,151.6a3,3,0,0,1-2.37,0ZM107.86,160a7.17,7.17,0,0,0,3.85,6.35,5.89,5.89,0,0,0,.63.29l.25.09q.28.1.57.18l.21.06c.23.05.47.1.71.13h.1a7.07,7.07,0,0,0,1.72,0h.1c.23,0,.47-.08.7-.13l.21-.06a5.58,5.58,0,0,0,.58-.18l.24-.09a4.51,4.51,0,0,0,.63-.29,7.17,7.17,0,0,0-.35-12.88v2.81a3,3,0,1,1-5.94,0v-2.81A7.18,7.18,0,0,0,107.86,160Zm3.86,12.68a59.29,59.29,0,0,0-3.86,16.27c.65.56,3.21,1.49,7.18,1.49s6.52-.93,7.17-1.49a58.92,58.92,0,0,0-3.86-16.27,4.15,4.15,0,0,1-.48.11l-.28.07c-.34.06-.69.12-1,.16l-.4,0c-.3,0-.61.05-.91.05h-.4c-.31,0-.61,0-.92-.05l-.39,0c-.35,0-.7-.1-1-.16l-.28-.07A4.15,4.15,0,0,1,111.72,172.66Zm120.1,1.47a3,3,0,0,1-3,3H137.78a3,3,0,0,1-3-3v-43.2l-16.32-7.13-.48.08v23.33a13.09,13.09,0,0,1,5.61,22.66c2.76,6.55,4.53,15.51,4.53,19.31,0,4.43-5,7.18-13.11,7.18s-13.12-2.75-13.12-7.18c0-3.8,1.77-12.76,4.54-19.31a13.08,13.08,0,0,1,5.61-22.66V121.37c0-.12,0-.24,0-.36L93.53,112.9a3,3,0,0,1,0-5.44l88.6-38.69a3,3,0,0,1,2.37,0l88.6,38.69a3,3,0,0,1,0,5.44l-41.28,18Z" transform="translate(-89.48 -66.25)"/><path class="cls-3" d="M185.37,175.08l-.71,139.63a6,6,0,0,0,6,6h98.82l38.93-39V140.6a6,6,0,0,0-6-6l-88.9.07" transform="translate(-89.48 -66.25)"/></g></svg>