<svg id="_ÎÓÈ_1" data-name=" ÎÓÈ 1" xmlns="http://www.w3.org/2000/svg" xmlns:xlink="http://www.w3.org/1999/xlink" viewBox="0 0 980 1328.87"><defs><style>.cls-1{fill:none;}.cls-2{clip-path:url(#clip-path);}.cls-3{fill:#fff;}</style><clipPath id="clip-path" transform="translate(-189.29 -119.99)"><rect class="cls-1" x="189.29" y="120" width="980.05" height="1328.89"/></clipPath></defs><g class="cls-2"><path class="cls-3" d="M627.43,503H760V536.8H627.43ZM807.19,672.42A112.24,112.24,0,1,1,695,560.18h0A112.38,112.38,0,0,1,807.19,672.42M554.76,152.88,679.31,360.22,614.76,467.76,480.63,255.37Zm190.36,97.71-52.2,86.93-52.16-86.93Zm14-23.38H626.69l-50.35-83.83H809.56Zm4.64,252.37H634.91l196.2-326.7,74.15,102.49Zm19.61,68.91V492.3L929.25,261.17a11.67,11.67,0,0,0-.4-13.09l-83.7-115.7v-.7A11.69,11.69,0,0,0,833.46,120H555.69a11.38,11.38,0,0,0-4.8,1.09,9.15,9.15,0,0,0-1.17.78,11.76,11.76,0,0,0-2.92,2.48c-.16.19-.44.29-.58.49L457.05,248.11a11.68,11.68,0,0,0-.41,13.09L603.06,493.11a11.08,11.08,0,0,0,1,3.83v51.57a11.69,11.69,0,0,0,11.7,11.67h3.18a135.55,135.55,0,0,0-59.6,112.24C559.34,747.21,620.17,808,695,808s135.59-60.82,135.59-135.61A135.55,135.55,0,0,0,771,560.18h.69a11.68,11.68,0,0,0,11.68-11.68h0" transform="translate(-189.29 -119.99)"/><path class="cls-3" d="M670.92,650.17a11.65,11.65,0,0,0,8.81-6.38l13.59-27.31,13.44,27.39a11.72,11.72,0,0,0,8.79,6.43l30.17,4.48-22,21.23a11.65,11.65,0,0,0-3.39,10.33l5.07,30.07-27-14.27a11.72,11.72,0,0,0-5.47-1.36,11.55,11.55,0,0,0-5.4,1.34l-27.06,14.12,5.26-30.06a11.69,11.69,0,0,0-3.34-10.36l-21.67-21.36Zm-66.4-7.59a11.69,11.69,0,0,0,2.92,12l34.32,33.63-8.27,47.34a11.69,11.69,0,0,0,16.92,12.38L693,725.69l42.45,22.48a11.69,11.69,0,0,0,5.47,1.36,11.74,11.74,0,0,0,11.52-13.64l-8-47.38L779,655.11a11.69,11.69,0,0,0-6.43-20l-47.52-7L703.9,585c-2-4-6.81-6.15-10.5-6.55a11.68,11.68,0,0,0-10.47,6.49l-21.4,43L614,634.68a11.66,11.66,0,0,0-9.46,7.93" transform="translate(-189.29 -119.99)"/><path class="cls-3" d="M1012.1,1396c-27.77,0-50.25-7.6-62-14.73L943,1376.9l14.88-55.19,12.41,6.83c6.35,3.55,22.65,10.33,38.67,10.33,5.52,0,23.6-1,23.6-14.1,0-15.82-24.36-16.3-27.11-16.3H976.24v-53.86h28.57c8.71,0,22.46-3,22.46-10.83s-10.61-8.76-16.91-8.76c-13,0-27.5,6-33.56,9.72l-12.46,7.68-15.28-54L956,1194c11.56-7.36,35.37-16,64.58-16,50.72,0,73.79,30.21,73.79,58.3,0,17.43-7.16,32.18-20.21,42.74a55.94,55.94,0,0,1,26.57,48.23c0,41.14-35.59,68.79-88.59,68.79m-293-267.94h-65v-144l-33.44,15.84-12.2-55.52,60.71-28.11h50ZM424.93,1394.3H268.38v-42.75l27.86-25.23c39.44-35.26,58.18-55.12,58.5-72.67,0-7-2.11-16.47-19.91-16.47-10.55,0-22,4.48-34,13.3L289.27,1259l-20.87-52.54,6.59-5.1c17.75-13.68,43.38-21.87,68.57-21.87,47.16,0,77.55,27.6,77.55,70.27,0,35.11-23.25,62.2-49.52,86H424.9ZM852,1127.86V860.53H506.58v267.33H189.29v321h980v-321Z" transform="translate(-189.29 -119.99)"/></g></svg>