<svg id="_ÎÓÈ_1" data-name=" ÎÓÈ 1" xmlns="http://www.w3.org/2000/svg" xmlns:xlink="http://www.w3.org/1999/xlink" viewBox="0 0 775.53 793.55"><defs><style>.cls-1{fill:none;}.cls-2{clip-path:url(#clip-path);}.cls-3{fill:#fff;}</style><clipPath id="clip-path" transform="translate(-277.4 -32.12)"><rect class="cls-1" x="277.42" y="32.11" width="775.54" height="793.55"/></clipPath></defs><g class="cls-2"><path class="cls-3" d="M665.38,32.12c4.87,2.89,9.55,5.39,14,8.28Q848.81,151.48,1018.2,262.64a93.37,93.37,0,0,1,11.56,8.4c4.91,4.42,5.85,10.38,4.1,16.49-1.79,6.26-6,10.52-12.64,11.15-7.11.7-14.31.8-21.46.8q-258.25.09-516.5,0h-156a172.42,172.42,0,0,1-17.89-.76c-6.63-.71-10.83-5-12.67-11.13s-.75-12,4.06-16.53a78.19,78.19,0,0,1,10-7.45Q482.42,151,654.14,38.45c3.44-2.26,7.16-4.06,11.24-6.33" transform="translate(-277.4 -32.12)"/><path class="cls-3" d="M665.43,825.62H308.71c-5.37,0-10.78.21-16.12-.27-9.31-.83-14.24-5.65-14.84-14.73a140.78,140.78,0,0,1,0-19.7c.58-8.12,5.49-13.08,13.56-14.09a104.6,104.6,0,0,1,12.52-.34h722.4a114.07,114.07,0,0,1,12.54.28c8.24,1,13.24,5.75,13.81,13.8a149.65,149.65,0,0,1-.07,21.49c-.55,7.34-5.16,12.09-12.5,13-5.91.71-11.93.53-17.89.53H665.39" transform="translate(-277.4 -32.12)"/><path class="cls-3" d="M721.79,653.08c-4.54,1.1-7.37,2.4-10.21,2.41q-47.51.09-95-.28c-2.22,0-4.41-1.47-7.64-2.64-.32-5.23-.87-10.48-.92-15.75-1.51-141.05-.61-270.89,2.12-285.61,3-.63,6.3-1.93,9.67-1.95q45.69-.24,91.39,0c2.86,0,5.71.85,8.62,1.31,3.67,6.72,2.55,13.4,2.57,19.8q.14,78.86.06,157.73V633.84c0,5.9-.37,11.83-.64,19.27" transform="translate(-277.4 -32.12)"/><path class="cls-3" d="M506.42,652.74c-4.06,1.26-6.31,2.54-8.55,2.55q-48.37.16-96.75-.07c-2.21,0-4.43-1.42-7.66-2.55-.32-5.25-.87-10.51-.9-15.78-1.53-142.09-.66-270.63,2-285.56,2.36-.64,5.1-2,7.87-2q47.49-.18,95,0c2.27,0,4.52.92,7.66,1.6.62,4.25,1.68,8.22,1.72,12.21.21,16.14.12,32.27.12,48.39V632c0,6.53-.31,13-.5,20.78" transform="translate(-277.4 -32.12)"/><path class="cls-3" d="M823.55,652.92c0-98.88,0-195.62.06-292.33,0-2.86.83-5.73,1.4-9.4,3.79-.73,7.14-1.82,10.53-2,47-1.79,86.55-.83,100.76,2.54a60.28,60.28,0,0,1,1.5,8c1.65,28,.36,279.51-1.57,293.11-3.41.85-7.27,2.57-11.14,2.61q-43.9.38-87.82,0c-4,0-8-1.49-13.72-2.64" transform="translate(-277.4 -32.12)"/><path class="cls-3" d="M665,747.5H356.57c-5.39,0-10.78.14-16.14-.29-8.38-.69-13.63-5-14.55-13.06a97.71,97.71,0,0,1-.09-21.42c.81-7.86,6.1-12.71,14.34-13.69,6.51-.76,13.12-.55,19.7-.55H917.5c20.93,0,41.85-.14,62.77.06s25.05,4.62,24.93,25.51a73.06,73.06,0,0,1-.23,9c-1.19,9-6.07,13.57-15.45,14.28-5.33.39-10.74.23-16.11.23H665" transform="translate(-277.4 -32.12)"/></g></svg>