<svg id="_ÎÓÈ_1" data-name=" ÎÓÈ 1" xmlns="http://www.w3.org/2000/svg" xmlns:xlink="http://www.w3.org/1999/xlink" viewBox="0 0 1031.55 1334.17"><defs><style>.cls-1{fill:none;}.cls-2{clip-path:url(#clip-path);}.cls-3{fill:#fff;}</style><clipPath id="clip-path" transform="translate(-143.44 -142.95)"><rect class="cls-1" width="1358.62" height="1542.22"/></clipPath></defs><g class="cls-2"><path class="cls-3" d="M647.69,971.66A325.68,325.68,0,0,1,483.1,927.24c.29-2.82-.15-5.72-1.14-9.62-1.71-7.54-.92-11.89,3.58-17.35,4.53-5.65,23.22-20.78,29.08-27.39,5.84-6.39,42.67-51.52,47.55-55.28s16-12.67,19.61-26.82,16.61-41.7,7.78-48.71c-7-5.55-8.53-5.29-18.52-7.38-3.27-.68-14.52-9-17-11.24-6.74-6.11-21.45-15.51-25.67-20.89-5.3-7-26.58-10.3-32.05-13.11s-41.17-14.54-49.63-8.5c-8.5,6.22-20.2,9.8-24.73,0-4.35-9.81-6.63-11.17-13-12.67-6.23-1.3-3-8.89-3.38-15.46-.59-6.61-4.15-13.62-8.71-8.89-4.29,4.74-19.6,17-21.88,10.78-2.28-6-13-31.36,3.23-36.06,16.05-4.73,29.43-1.87,33.6,2.28,4,4.11,6.94,16,12.06,14.5,4.94-1.5-3.28-29.34-1.6-36.68,1.9-7.55,44.75-14.65,51.32-17.5,6.81-2.81,18.82-30.73,22.38-33,10.28,7.33,19.63-10.39,25.13-9.09,5.27,1.51,8.84-.38,4.36-8.31-4.36-8.12-10.21-32.08-18.71-42.82s-9.48-13.62-13.42-23.81c-4.12-10.34-8.67-19.24-11.7-12.28-3.19,7-9.82,16.43-13.38,7.6-3.58-9.09-3.2-8.52-7.75-12.67-4.33-4.35-8.12-5.27-14.34-7.16s-12.47.55-12.08,6.57c.57,6-5.86,17-1.69,24.93,4,8.14,7.53,16.44,2.26,19.24-5.51,2.85-8.89-10.7-5.51,19.28.61,5.25-7.91.53-7.91-5.65s2.64-15.52-7.35-15.52c-9.82,0-8.9-10.5-16.1-15.8-7.16-5.07-19.57,3.19-17.86-8.54.71-4.5.77-7.92,1-10.76q6.83-9.52,14.28-18.54c2.46-1.77,4.43-2.23,7.51-.72,5.89,2.86,9.86,2.86,13.62-.51,3.58-3.25,10.19-1.95,10.19-6s-7.58-4.17-6.61-11.17c.74-6.77,4-3.78,5.42-13.36a329.29,329.29,0,0,1,87-57.91,55.87,55.87,0,0,1,.27,10.1c-1.5,13.24,2.65,8.5,6.23,13.8,3.58,5.09-5.67,18.29-7.91,24.33-2.26,6.22,4.68,14.52,11.87,30.39s15.66,36.24,22.81,37.19,5.5,11.13,10.39,7.35,5.71-12.08,9.8-24.35c4-12.08,14.07-10.72,24.46-16.76S619,391.06,625.44,384c6.22-7,13.38-9.8,11.11-22.08-2.28-12.08-4.5-22.09-.92-29,1.71-3.54,5.21-10.65,8.35-16.91,1.25,0,2.48-.05,3.73-.05a326.51,326.51,0,0,1,217,82.29c-3.12.38-5.62.2-6.92-1-5.86-5.12-7.55-1.89-11.11-1,0,0-10.78-1.87-17.55-10.19-6.82-8.5-8.12-5.66-15.7-13.57-7.55-8.13-9.42-16.05-17-12.67S756.61,396.24,744,411.37c-12.47,14.89-34.74,30.4-23.59,41.12,11.12,11,17,9.42,18.32,15.46,1.49,6.24,2.81,12.85,4.5,15.13,1.69,2.46,12.47,10.78,17.92-.39s6.24-19.24,12.47-17.35c6.42,1.69,7.54,6.05,4.55,14.55-3.2,8.46-5.47,21.49-16.25,20.93-10.57-.39-22.27-7-25.85-5.48-3.58,1.31-5.84,4.74-9.8,7.94-4.17,3.19-16.62,18.7-25.14,21.11s-29.27-.28-23.42,6.72,24.77,23.39,16.65,22.83c-7.93-.39-21.55-1.9-22.28,6.22-1,7.93-4.54,12.61-2.65,18.12,1.69,5.66,7.53,16.58,14.74,12.82s20.92-7.55,24.5-16.05,7.78-17.74,16.61-17.35c8.91.59,22.38,4.13,20.88,8.28-1.34,4.15,2.57,22.31,7.84,18.87,5.25-3.19,9.8-7,13-8.26,3-1.54,7.16,4.68,8.47,7s10.19,7,12.08-.59c1.69-7.34,3.61-1.69,8.88.59,5.46,2.46,21.5,4.15,23.78,6s7.2,7.55,1,15.13c-6.42,7.34-13.64,10.34-23.83,4.68-10.34-5.65-21.5,4.74-33-.92-11.68-5.65-6.43-13.62-20.2-19.28s-45.31,1.36-55.13,4.15-10.37,3.79-14.34,8.52-30.4,35.13-30.4,52.48-22.59,59.9,34.57,69.12c31.83,5.14,50.25-9.27,46.67,0-3.58,9.44,6.17,9.79,11.82,20.51,5.86,10.77,19.28,82.49,21.56,94.22s-6.13,37,8.61,34.68c14.92-2.4,35-16.36,41-30,6.43-13.57,7.35-29,15.28-37,8.11-7.93,17.92-7.93,18.89-19.27.77-11.31-2.27-37.94,3.18-44.18,5.32-6,30.4-34.15,33.06-45.46s6.23-14-4-14c-10.39,0-27.93-1.54-32.87-10.78-4.88-9.41-16.61-27.33-16.61-31.5s7.2-3.76,10.78,5.08,16.23,35.66,30.58,30c14.16-5.65,34.35-12.08,34.94-21.11.33-8.89-6.42-19.09-13.64-18.71-7.14.59-14.69-4.73-14.69-9.8s1.31-3.2,9.83,0,11.29,8.88,24.14,9.8,27.74,13.59,34.9,19.24,19.85,44.21,22.84,48c1.45,1.7,3,2.59,4.53,2.38-29,151.34-162.33,266.06-322,266.06M460.84,812.86c-1.74,11.7-10.2,62.09-9.29,73.26.28,3.85-.86,10.7-2.09,18.63C371,845,320.12,750.66,319.84,644.67c3.45,5,5.73,7.27,6.19,4.39,1.34-8.32,1.34-16.82,5.12-10.78,3.38,6.22,12.85,24.93,28.11,28.13,15.27,3.37,13.93,8.33,19.79,14,5.66,5.65,19.65,4.9,25.87,7.69s21.55,11.36,24.55,16.82c3.25,5.65,1.89,13.2-1.31,21.7-3,8.5-6.61,16.82-2.26,24.93,4.54,7.93,14,30.92,21.5,36.06,7.73,5.25,15.32,13.57,13.44,25.26M647.69,263.43c-209.72,0-380.36,170.63-380.36,380.36S438,1024.11,647.69,1024.11s380.36-170.64,380.36-380.36S857.41,263.43,647.69,263.43" transform="translate(-143.44 -142.95)"/><path class="cls-3" d="M823.24,844.21c-2.07,7.29-1.28,15-.48,22.51,7.92-11.6,14.51-24.64,16-38.33-7.83,1.63-13.44,8.53-15.52,15.82" transform="translate(-143.44 -142.95)"/><path class="cls-3" d="M1110.48,694c-10.32,15.92-20.8,32.37-25.19,51.08-4.37,19.24-1.91,39.18.35,58.25,2.46,19.25,4.74,37.42-1.05,49.32-5.95,12.25-21.68,21.87-38.3,32-16.45,10-33.23,20.29-45.31,35.51-12.22,15.38-18.71,34.09-24.82,52.29-6.3,18.54-12.08,35.85-22.75,44.26-10.32,8.39-28.51,10.32-47.92,12.23-19.07,2.11-38.83,4-56.67,12.59-17.32,8.41-31.14,22.57-44.43,36-13.65,14.18-26.59,27.29-40.06,30.44-12.07,2.63-29.56-3.15-47.74-9.8-18.38-6.65-37.27-13.46-57.37-13.46s-39.18,6.81-57.38,13.46-35.86,12.43-47.75,9.8c-13.48-3.15-26.4-16.45-40.23-30.44-13.13-13.64-26.93-27.63-44.25-36-17.84-8.55-37.62-10.66-56.67-12.59-19.43-1.91-37.62-3.84-48.11-12.23S348.38,991,342.27,972.43c-6.3-18.2-12.59-36.91-24.84-52.29-12.06-15.22-29-25.54-45.29-35.51-16.62-10.15-32.37-19.77-38.32-32-5.77-11.9-3.49-30.07-1.21-49.32,2.44-19.07,4.72-39,.35-58.25-4.21-18.71-14.71-35.16-25-51.08-10.67-16.43-20.82-32.18-20.82-46.34,0-14,10.15-29.74,20.82-46.36,10.32-15.73,20.82-32.18,25-50.89,4.37-19.42,2.09-39.18-.35-58.42-2.28-19.08-4.56-37.27,1.21-49.15,6-12.25,21.7-21.87,38.32-32,16.26-10,33.23-20.29,45.29-35.51C329.68,359.93,336,341,342.27,323c6.11-18.54,12.06-36,22.56-44.43,10.49-8.22,28.68-10.15,48.11-12.08,19.05-2.09,38.83-4.18,56.67-12.76,17.32-8.39,31.12-22.38,44.25-35.85,13.83-14.18,26.75-27.47,40.23-30.44,11.89-2.79,29.56,3.15,47.75,9.8s37.25,13.46,57.38,13.46,39-6.81,57.37-13.46c18.18-6.65,35.67-12.59,47.74-9.8,13.47,3,26.41,16.26,40.06,30.44,13.29,13.47,27.11,27.46,44.43,36,17.84,8.57,37.6,10.5,56.67,12.59,19.41,1.93,37.6,3.86,47.92,12.08,10.67,8.39,16.45,25.89,22.75,44.43,6.11,18.18,12.6,36.91,24.82,52.29,12.08,15.22,28.86,25.54,45.31,35.51,16.62,10.15,32.35,19.77,38.3,32,5.79,11.88,3.51,30.07,1.05,49.15-2.26,19.24-4.72,39-.35,58.42,4.39,18.71,14.87,35.16,25.19,50.89,10.67,16.62,20.82,32.37,20.82,46.36,0,14.16-10.15,29.73-20.82,46.34m-44.06,595.59-119.3-10.44a59.44,59.44,0,0,0-56.68,29.4L832.2,1408.9,692.76,1136.18c2.91,5.51,66,18,81.15,14.5,24.32-5.6,42.52-22.91,58.42-39.18a348.65,348.65,0,0,1,55.09,93.93c10.23,26,51.28,10.39,40.58-15.94-15.44-39.74-40.74-70.9-62.15-106.89,6.81-5.6,82.75-23.48,85.94-17.27l114.59,224.24m80.8-571.79c12.94-20.29,27.81-43.2,27.81-70.14s-14.87-49.84-27.81-70c-18.2-28.23-22-47-18-80.28,2.79-23.45,6.11-50.2-5.25-73.46-18.6-38.61-64-44.69-88.86-75.92-7.51-9.44-12.42-23.79-17.48-39.18-7.71-22.38-16.27-47.92-36.92-64.37-20.29-16.27-47-19.06-70.67-21.52-32.92-3.58-51.17-12.15-74.34-35.67-16.78-17.15-35.67-36.55-61.73-42.5-24.59-5.63-49.32,3.08-72.17,11.37s-45.15,13.41-69,6.63S586.46,143,561.08,143c-31.28,0-57.54,22.78-78.36,44.26-23.41,23.78-41.09,32.06-74.34,35.67-25.11,2.74-52.17,5.81-72.28,22.7-19,16-27.61,40.35-35.29,63.19-5.25,15.39-10.15,29.74-17.49,39.18C276,357.1,263,365.16,249.39,373.37,228.92,386,205.84,400,194.47,423.93c-11.93,25.11-5.56,52.56-3,78.95,2.88,30.18-4,49.6-20.22,74.79-12.94,20.13-27.81,43-27.81,70s14.87,49.85,27.81,70.14c18.07,28,22,47.31,18,80.28-2.81,23.45-6.13,50,5.25,73.46,11.37,23.8,34.45,38,54.92,50.38,28.55,17.57,40.5,32.85,51.42,64.54,7.53,22.56,16.27,48.1,36.74,64.55a66.27,66.27,0,0,0,9.79,6.46,1098.64,1098.64,0,0,0-108.45,245.93s-.52,1.91-.52,1.93c-4.06,14.92,8.76,31.25,25.19,27.81l146.17-29.59c6.3.52,11.73,4.72,14.71,11.72,0,0,76.34,151.14,76.43,151.3,5.89,11.68,27.61,16.58,39.53-.88l41.8-93.4c21.68-55.09,34.46-80.1,64.88-126.81,15.33-23.52-21.13-47.59-36.72-23.79-31.83,49.15-46,76.8-68.57,133.64l-22.56,50.54-55.1-109c-20.6-40.76-55.83-37.64-93.89-30l-78.91,16a1045.87,1045.87,0,0,1,99.4-212.49c19.55,2.89,41.7,1.73,59.82,10.51,3.85,1.87,42.5,34.37,40.76,36a197.08,197.08,0,0,0-49.5,75.9,152.27,152.27,0,0,0-6.3,21c-5.71,27,36.46,36.65,42.67,9.46a150.11,150.11,0,0,1,48.47-79.06c2.28-1.32,29.71,8.22,34.44,8.22,19.24,0,37.79-6.64,55.63-13.12a217.31,217.31,0,0,1,24.48-8s170,332.45,170.37,333.21c7.83,15.29,29.71,15.55,38.49,1l78.17-135.22c2.81-4.71,8.23-7.69,15.06-7.69,36.44,3.21,72.72,8,109.18,11,19.45,1.66,73.77,14.8,73.77-18.74a22.73,22.73,0,0,0-4.37-13.11l-132.63-259c14.69-16.08,21.87-37.25,28.33-56.32,10.54-31,23.06-47.08,51.42-64.54,20.29-12.41,43.39-26.58,54.94-50.38,12.17-25.08,5.3-52.53,2.7-78.85-3-30,4.48-49.94,20.56-74.89" transform="translate(-143.44 -142.95)"/><path class="cls-3" d="M659.19,1022.3c-206.55,0-374.6-168-374.6-374.6s168.05-374.59,374.6-374.59a371.74,371.74,0,0,1,220.57,71.75c22.76,16.61-2.92,52-25.78,35.32a328.35,328.35,0,0,0-194.74-63.36c-182.44,0-330.88,148.44-330.88,330.88s148.4,330.86,330.83,330.86S990.05,830.11,990.05,647.7c0-74.65-24.25-145.13-70.15-203.75-17.33-22.16,17-49.28,34.42-27,52,66.4,79.46,146.19,79.46,230.72,0,206.55-168,374.6-374.59,374.6" transform="translate(-143.44 -142.95)"/></g></svg>