<svg id="_ÎÓÈ_1" data-name=" ÎÓÈ 1" xmlns="http://www.w3.org/2000/svg" xmlns:xlink="http://www.w3.org/1999/xlink" viewBox="0 0 1222.22 740.05"><defs><style>.cls-1{fill:none;}.cls-2{fill:#fff;}.cls-3{clip-path:url(#clip-path);}</style><clipPath id="clip-path" transform="translate(-74.08 -89.92)"><rect class="cls-1" x="74.08" y="89.91" width="1222.22" height="740.03"/></clipPath></defs><polygon class="cls-2" points="1037.68 0 1031.22 0.87 940.71 52.14 936.7 57.4 937.46 63.88 968.89 118.82 968.79 118.58 1116.47 376.29 1121.76 380.39 1128.22 379.52 1218.29 327.41 1222.22 322.27 1221.45 315.75 1074.97 60.14 1075.85 61.52 1043 4.1 1037.68 0"/><g class="cls-3"><path class="cls-2" d="M955.72,182.37l3,1.23,3.38,1.74q20.64,11.28,34,33.27L1104.37,406.3l2.19,4.13q21.29,42.92-15.73,71.13l-5.19,3.61-19.11,11.06L769.12,325.51h-.18c-5.44-3.48-10.88-6.73-16.37-9.79-4.57-2.49-9.13-4.81-13.72-7a247.74,247.74,0,0,0-48.72-17.5l-3-.68a237.41,237.41,0,0,0-46.52-5.81h-25l-2.1,3.21-.1.17c-8.58,13-16.95,24.77-25.09,35.16-5,6.36-10,12.21-14.84,17.58l-1.31,1.52c-5.65,6.17-11.2,11.7-16.56,16.59q-32.16,28.86-59.92,27.79a51.86,51.86,0,0,1-13.31-2.28l-7-2.85L469.12,377q-16.17-14.38-8.67-36.1l2.88-6.84,1.52-2.94,55-95.26.35-.43.54-.82A127.16,127.16,0,0,1,573.82,190q26.31-11.9,60.41-13.57c6.22-.34,12.43-.57,18.64-.85h2.6l260.28-.09,2.18.09a144.69,144.69,0,0,1,15,1.11,90.33,90.33,0,0,1,22.78,5.67" transform="translate(-74.08 -89.92)"/><path class="cls-2" d="M1019.94,521.64h-.09q25.71,14.79,33.3,43.46c4.22,15.58,3.42,30.45-2.39,44.71l-4.68,9.71-.12.06q-14.88,25.71-43.48,33.28-20.67,5.63-39.83-.52a73.41,73.41,0,0,1-9.34,26.73v.11q-14.91,25.67-43.53,33.32a67.85,67.85,0,0,1-39.95-.59,69.77,69.77,0,0,1-9.21,26.69q-14.86,25.81-43.49,33.47t-54.3-7l-3.77-2.21a71.61,71.61,0,0,1-9,25L750,788q-12.37,21.45-34.31,30.33l-9.21,3a69.81,69.81,0,0,1-33.92,1,70.84,70.84,0,0,1-20.35-8.1L634,803.68a91.82,91.82,0,0,0,7.53-19.33v-.11a96.8,96.8,0,0,0,3.23-20v-.51q1.1-25.23-12.31-48.47l-.13-.11a91.56,91.56,0,0,0-21.17-25.39l-6.56-4.88a91.8,91.8,0,0,0-21.53-10.45L582,668l-2-8.46a93.79,93.79,0,0,0-8-19.3l-1-1.46v-.14A108,108,0,0,0,561.59,625a86.24,86.24,0,0,0-39.73-26.94l-.2-1-.82-5.41a84,84,0,0,0-3.67-12.91A93.18,93.18,0,0,0,512.58,568L510,563.17v-.08l-.69-1.16q-16-26.74-44.14-37.72L462.1,523l-6.55-2-1-.24-8.75-1.9a88.6,88.6,0,0,0-17.28-1.41,82.62,82.62,0,0,0-21.14,3.11l-3.77-7.2v-.08a91.61,91.61,0,0,0-23.73-27.36,85.58,85.58,0,0,0-12.1-7.5,97.31,97.31,0,0,0-19.5-7.52h-.07L343,469.62l-3.61-.71-2.57-.4q-4.95-.72-9.94-.95h-4.59a90.89,90.89,0,0,0-12.54,1.14,91.87,91.87,0,0,0-30.69,11.24l-24.34,14c-12.19-21.11-13.12-42.1-2.83-63.15L357,247.3l.16-.18c3.2-5.68,6.42-11.35,9.59-17l4.39-7.65,2.46-4.24q23.5-39.34,69-42.7h70.51a165.1,165.1,0,0,0-21.31,22.68c-2.52,3.23-4.94,6.57-7.29,10.06l-1.68,2.35-.1.19-1.64,2.66-55,95.08-.61,1.13L423,314.27l-.27.67a100.2,100.2,0,0,0-4.72,11.4q-6.24,17.25-5.85,32.44v.08A63.27,63.27,0,0,0,418.61,385q9.33,19.17,32.45,34.16l5.28,3a102.51,102.51,0,0,0,12.79,4.91q27.24,10.8,56.69,1.74l8.85-3.09q24.63-10,50.85-33.47v-.08a291.66,291.66,0,0,0,21.32-21.46v-.07l5.56-6.25c3.62-4.24,7.28-8.73,11-13.42l.05-.08c5.26-6.64,10.54-13.79,15.86-21.38h.44a194.06,194.06,0,0,1,37.43,4.59l.24.08a203.05,203.05,0,0,1,40.5,14.15q6.08,2.82,12.06,6.12l1.63.92,7.52,4.31,1.43.85,4.36,2.65,3.92,2.26Z" transform="translate(-74.08 -89.92)"/><path class="cls-2" d="M280.57,528.71l21-12.2a48.28,48.28,0,0,1,64.83,18.31l2.37,4.65,1.68,4.18a45.53,45.53,0,0,1,1.24,25.62l-.45,2.07-2.31,7.4a91.86,91.86,0,0,1-6.52,14.1h.11l44.33-25.73,9-4.18a46.26,46.26,0,0,1,27.53-.71,47.62,47.62,0,0,1,18.44,9.48A49.3,49.3,0,0,1,472,583.54l.68,1.19,4.31,9.39,1.08,3.69.59,3.13a48.06,48.06,0,0,1-1.19,20.35l-1.21,4.21a98.06,98.06,0,0,1-6.82,16.29,45.86,45.86,0,0,1,35-4,48.2,48.2,0,0,1,11.38,4.53l7.31,5a47.45,47.45,0,0,1,10.73,12.83l.85,1.73,3.63,8.62a46,46,0,0,1,.25,26.29V697a104.77,104.77,0,0,1-8.31,21.35h0a46.3,46.3,0,0,1,23.91-6l8,.94,3.7.84,2,.67,8.91,3.55a50,50,0,0,1,25,43.37,49.14,49.14,0,0,1-1.8,11.49l-.75,2.63-2.65,6.39v.19a46.37,46.37,0,0,1-17.87,19.31L545.53,821c-16.76,9.25-34.41,11.33-53.11,6.33l-3.93-1.11q-25.62-8.34-39.42-32.2h0a76.9,76.9,0,0,1-6-13,71.82,71.82,0,0,1-28.36-2q-28.56-7.62-43.41-33.3v-.09a75,75,0,0,1-6-13,71.66,71.66,0,0,1-28.4-2.09q-28.61-7.57-43.41-33.27h0a77.35,77.35,0,0,1-5.59-11.91A43.47,43.47,0,0,1,284.45,674l-.77-8.65.23-9.13Q264.4,647,253,627.27h0a76.23,76.23,0,0,1-6.28-13.83,69,69,0,0,1-.9-40.45c4.78-17.77,14.72-31.49,29.88-41.29l1.79-1.2,1.68-1,.66-.36Z" transform="translate(-74.08 -89.92)"/></g><polygon class="cls-2" points="179.35 4.09 0.78 315.73 0 322.25 3.94 327.59 94 379.52 100.52 380.38 105.81 376.34 284.82 63.87 285.58 57.38 281.55 52.13 191.02 0.85 184.53 0.02 179.35 4.09"/></svg>