<svg id="_ÎÓÈ_1" data-name=" ÎÓÈ 1" xmlns="http://www.w3.org/2000/svg" xmlns:xlink="http://www.w3.org/1999/xlink" viewBox="0 0 636.96 729.19"><defs><style>.cls-1{fill:none;fill:#63666a}.cls-2{clip-path:url(#clip-path);}.cls-3{fill:#fff;}</style><clipPath id="clip-path" transform="translate(-332.57 -83.18)"><rect class="cls-1" x="332.58" y="83.19" width="636.96" height="729.18"/></clipPath></defs><g class="cls-2"><path class="cls-3" d="M913.21,553c0,143.25-116.93,259.37-261.17,259.37S390.88,696.25,390.88,553,507.81,293.63,652,293.63,913.21,409.75,913.21,553" transform="translate(-332.57 -83.18)"/><path class="cls-1" d="M873.13,553c0,121.26-99,219.57-221.08,219.57S431,674.26,431,553s99-219.57,221.09-219.57,221,98.31,221,219.57" transform="translate(-332.57 -83.18)"/><path class="cls-3" d="M424.79,565.42a10.21,10.21,0,0,1-10.2-10.19v-4.45a10.21,10.21,0,0,1,10.2-10.19H879.3a10.19,10.19,0,0,1,10.19,10.19h0v4.45a10.19,10.19,0,0,1-10.19,10.19H424.79Z" transform="translate(-332.57 -83.18)"/><path class="cls-3" d="M649.82,790.45a10.2,10.2,0,0,1-10.19-10.19V325.75a10.21,10.21,0,0,1,10.19-10.21h4.45a10.22,10.22,0,0,1,10.19,10.21V780.26a10.21,10.21,0,0,1-10.19,10.19Z" transform="translate(-332.57 -83.18)"/><path class="cls-3" d="M652.05,329.89c-32.07,0-62.42,23.78-85.49,67-22.69,42.53-35.2,98-35.2,156.12s12.51,113.6,35.2,156.12c23.07,43.21,53.42,67,85.49,67s62.42-23.79,85.48-67c22.69-42.52,35.2-98,35.2-156.12s-12.51-113.59-35.2-156.12c-23.06-43.21-53.42-67-85.48-67m0,471.15c-39.17,0-75.71-25.28-102.92-71.18C521.61,683.41,506.44,620.59,506.44,553s15.17-130.39,42.69-176.86C576.34,330.24,612.88,305,652.05,305s75.7,25.28,102.91,71.18c27.53,46.47,42.69,109.27,42.69,176.86S782.49,683.41,755,729.86c-27.25,45.9-63.79,71.14-103,71.14" transform="translate(-332.57 -83.18)"/><path class="cls-3" d="M467.49,702.66l.69-1c5.51-7.77,8.64-9.6,9.81-10.31,46.52-27.46,108.33-42.58,174-42.58,64.64,0,125.71,14.69,172,41.36,4.55,2.62,8.57,8.16,11.66,16l.43,1.13-23.85,7.52-.42-.93c-.3-.69-.61-1.35-.9-1.89l-.46-.88-.87-.5c-42.28-23.8-98.23-36.92-157.55-36.92-60.69,0-117.55,13.65-160.13,38.41l-.52.29-.37.45c-.51.61-1.22,1.49-1.95,2.52l-.65.85Z" transform="translate(-332.57 -83.18)"/><path class="cls-3" d="M834.58,206.54H467.48V364c1,40.58,82.79,73.35,183.54,73.35,101.37,0,183.55-33.19,183.55-74.12Z" transform="translate(-332.57 -83.18)"/><path class="cls-3" d="M651.06,316.28A83.64,83.64,0,0,1,626.85,313L356.28,227.83c-22-6.94-23.71-23.26-23.71-28.11s1.72-21.15,23.71-28.08L626.85,86.51a89.64,89.64,0,0,1,48.41,0l270.56,85.13c22,6.91,23.71,23.25,23.71,28.1s-1.7,21.17-23.71,28.09L675.26,313a83.56,83.56,0,0,1-24.2,3.31" transform="translate(-332.57 -83.18)"/><path class="cls-1" d="M668.1,290.24c-9.37,2.95-24.71,2.95-34.09,0L363.44,205.09c-9.38-2.94-9.38-7.77,0-10.72L634,109.24c9.38-2.95,24.72-2.95,34.09,0l270.56,85.13c9.39,2.95,9.39,7.78,0,10.74Z" transform="translate(-332.57 -83.18)"/><path class="cls-3" d="M503.69,410.26a9.66,9.66,0,0,1-9.64-9.64V264.91c0-10.66,7.56-21.43,17.57-25L647.78,190.7a9.66,9.66,0,0,1,6.56,18.18L518.17,258c-2.34.85-4.83,4.4-4.83,6.9V400.62a9.67,9.67,0,0,1-9.65,9.64" transform="translate(-332.57 -83.18)"/><path class="cls-3" d="M538.44,485.68c1.76,9.18-4.43,16.69-13.79,16.69H481.43c-9.34,0-15.56-7.51-13.77-16.69l16.94-87.81c1.79-9.2,10.08-16.71,18.45-16.71s16.66,7.51,18.42,16.71Z" transform="translate(-332.57 -83.18)"/></g><polygon class="cls-1" points="189.46 326.6 205.85 335.22 194.06 357.35 189.46 326.6"/></svg>